0
SECTION
2
HEADER
999
*** POWERPCB  HEADER ***
9
$EXTMIN
10
-120.05
20
-0.05
9
$EXTMAX
10
0.05
20
75.05
9
$FILLMODE
70
0
9
$GRIDMODE
70
1
9
$GRIDUNIT
10
0.05
20
0.05
9
$INSBASE
10
-337.2
20
-532.6
9
$LIMCHECK
70
0
9
$PLINEWID
40
0.000254
9
$SNAPMODE
70
1
9
$SNAPUNIT
10
0.05
20
0.05
9
$TEXTSIZE
40
2.54
9
$TEXTSTYLE
7
W0$254
9
$USERI1
70
101
9
$USERI2
70
1
9
$USERI5
70
150
9
$VIEWCTR
10
-9.5875713333
20
14.9727486667
0
ENDSEC
0
SECTION
2
TABLES
999
*** POWERPCB  LAYER ***
0
TABLE
2
LAYER
70
23
0
LAYER
2
DBLAYERS
70
1
62
-255
6
CONTINUOUS
0
LAYER
2
BOARD_OUTLINE_00
70
0
62
255
6
CONTINUOUS
0
LAYER
2
BOARD_CUTOUT_00
70
0
62
255
6
CONTINUOUS
0
LAYER
2
LABEL_INFO
70
1
62
-255
6
CONTINUOUS
0
LAYER
2
LABEL_ATTRIBUTE
70
1
62
-255
6
CONTINUOUS
0
LAYER
2
PART_TYPE_04
70
1
62
-250
6
CONTINUOUS
0
LAYER
2
PART_NAME_BOT
70
1
62
-250
6
CONTINUOUS
0
LAYER
2
PART_INFO
70
1
62
-255
6
CONTINUOUS
0
LAYER
2
PART_PTS
70
1
62
-255
6
CONTINUOUS
0
LAYER
2
SYM_NAME
70
1
62
-255
6
CONTINUOUS
0
LAYER
2
SYM_PART_TYPE_01
70
1
62
-255
6
CONTINUOUS
0
LAYER
2
SYM_PART_NAME_01
70
1
62
-255
6
CONTINUOUS
0
LAYER
2
SYM_TERMINAL
70
1
62
-255
6
CONTINUOUS
0
LAYER
2
PKG_INFO
70
1
62
-255
6
CONTINUOUS
0
LAYER
2
DRIL_PLTE_THRU_01
70
0
62
34
6
CONTINUOUS
0
LAYER
2
DRIL_PLTE_THRU_02
70
1
62
-171
6
CONTINUOUS
0
LAYER
2
DRIL_PLTE_THRU_03
70
1
62
-222
6
CONTINUOUS
0
LAYER
2
DRIL_PLTE_THRU_04
70
1
62
-2
6
CONTINUOUS
0
LAYER
2
PADS_INNER
70
0
62
43
6
CONTINUOUS
0
LAYER
2
PADS_BOT
70
1
62
-56
6
CONTINUOUS
0
LAYER
2
PADS_TOP
70
0
62
43
6
CONTINUOUS
0
LAYER
2
PCB_PARAMS
70
1
62
-255
6
CONTINUOUS
0
LAYER
2
DRIL_SYMBOL
70
0
62
255
6
CONTINUOUS
0
ENDTAB
999
*** POWERPCB  TEXT STYLE ***
0
TABLE
2
STYLE
70
3
0
STYLE
2
W0$127
70
64
40
0
41
0.75
42
0
50
0
71
0
3
simplex
0
STYLE
2
W0$254
70
64
40
0
41
0.75
42
0
50
0
71
0
3
simplex
0
STYLE
2
W0$127R0
70
64
40
0
41
0.75
42
0
50
0
71
0
3
simplex
0
ENDTAB
0
ENDSEC
0
SECTION
2
BLOCKS
999
*** POWERPCB  DBLAYER ***
0
BLOCK
2
DBLAYERS
8
0
10
0
20
0
3
DBLAYERS
70
64
0
TEXT
8
DBLAYERS
10
0
20
-3.048
40
1.778
1
__It__Is__Job__Name__:=3308SHAJIN_20200410.PCB
999
 *  1.Number             2.Type                  3.RouteColor
999
 *  4.ViaColor           5.PadColor              6.CopperColor
999
 *  7.2DLineColor        8.TextColor             9.ErrorColor
999
 * 10.TopComponentColor 11.BottomComponentColor 12.RoutingDirection
999
 * 13.LayerThickness    14.CopperThickness      15.Dielectric
999
 * 16.IsRouteable       17.IsVisible            18.IsSelectable
999
 * 19.IsPrepreg         20.AssSilkScreen        21.AssPasteMask
999
 * 22.AssSolderMask     23.AssAssembly
0
TEXT
8
DBLAYERS
10
0
20
-6.096
40
1.778
1
Bottom:=4 1 6 6 6 6 6 6 14 0 29 1 0 51435 3.2999999523 1 0 1 0 129 122 128 130 0 0 1 27 0 12 20 
0
TEXT
8
DBLAYERS
10
0
20
-9.144
40
1.778
1
Silkscreen Bottom:=129 3 0 0 0 19 19 19 0 0 19 2 0 0 3.2999999523 0 0 1 0 -1 -1 -1 -1 0 0 0 19 0 19 19 
0
ENDBLK
999
*** POWERPCB  BOARD ***
0
BLOCK
2
BOARD_33
8
0
10
0
20
0
3
BOARD_33
70
64
0
POLYLINE
8
BOARD_OUTLINE_00
66
1
40
0.1
41
0.1
70
1
0
VERTEX
8
BOARD_OUTLINE_00
10
0
20
-0.4
0
VERTEX
8
BOARD_OUTLINE_00
10
120
20
-0.4
0
VERTEX
8
BOARD_OUTLINE_00
10
120
20
-75.4
0
VERTEX
8
BOARD_OUTLINE_00
10
0
20
-75.4
0
SEQEND
0
INSERT
2
SMOOTH_0$1
8
BOARD_OUTLINE_00
10
0
20
-0.4
0
INSERT
2
SMOOTH_0$1
8
BOARD_OUTLINE_00
10
120
20
-0.4
0
INSERT
2
SMOOTH_0$1
8
BOARD_OUTLINE_00
10
120
20
-75.4
0
INSERT
2
SMOOTH_0$1
8
BOARD_OUTLINE_00
10
0
20
-75.4
0
POLYLINE
8
BOARD_CUTOUT_00
66
1
40
0.1
41
0.1
70
1
0
VERTEX
8
BOARD_CUTOUT_00
10
70.6
20
-43.55
0
VERTEX
8
BOARD_CUTOUT_00
10
97.4
20
-43.55
0
VERTEX
8
BOARD_CUTOUT_00
10
97.4
20
-46.7
0
VERTEX
8
BOARD_CUTOUT_00
10
70.6
20
-46.7
0
SEQEND
0
INSERT
2
SMOOTH_0$1
8
BOARD_CUTOUT_00
10
70.6
20
-43.55
0
INSERT
2
SMOOTH_0$1
8
BOARD_CUTOUT_00
10
97.4
20
-43.55
0
INSERT
2
SMOOTH_0$1
8
BOARD_CUTOUT_00
10
97.4
20
-46.7
0
INSERT
2
SMOOTH_0$1
8
BOARD_CUTOUT_00
10
70.6
20
-46.7
0
POLYLINE
8
BOARD_CUTOUT_00
66
1
40
0.1
41
0.1
70
1
0
VERTEX
8
BOARD_CUTOUT_00
10
15.3
20
-47.4
0
VERTEX
8
BOARD_CUTOUT_00
10
26.9
20
-47.4
0
VERTEX
8
BOARD_CUTOUT_00
10
26.9
20
-51.15
0
VERTEX
8
BOARD_CUTOUT_00
10
15.3
20
-51.15
0
SEQEND
0
INSERT
2
SMOOTH_0$1
8
BOARD_CUTOUT_00
10
15.3
20
-47.4
0
INSERT
2
SMOOTH_0$1
8
BOARD_CUTOUT_00
10
26.9
20
-47.4
0
INSERT
2
SMOOTH_0$1
8
BOARD_CUTOUT_00
10
26.9
20
-51.15
0
INSERT
2
SMOOTH_0$1
8
BOARD_CUTOUT_00
10
15.3
20
-51.15
0
POLYLINE
8
BOARD_CUTOUT_00
66
1
40
0.1
41
0.1
70
1
0
VERTEX
8
BOARD_CUTOUT_00
10
1.5
20
-30.7
0
VERTEX
8
BOARD_CUTOUT_00
10
3.3
20
-30.7
0
VERTEX
8
BOARD_CUTOUT_00
10
3.3
20
-32.5
0
VERTEX
8
BOARD_CUTOUT_00
10
1.5
20
-32.5
0
SEQEND
0
INSERT
2
SMOOTH_0$1
8
BOARD_CUTOUT_00
10
1.5
20
-30.7
0
INSERT
2
SMOOTH_0$1
8
BOARD_CUTOUT_00
10
3.3
20
-30.7
0
INSERT
2
SMOOTH_0$1
8
BOARD_CUTOUT_00
10
3.3
20
-32.5
0
INSERT
2
SMOOTH_0$1
8
BOARD_CUTOUT_00
10
1.5
20
-32.5
0
POLYLINE
8
BOARD_CUTOUT_00
66
1
40
0.1
41
0.1
70
1
0
VERTEX
8
BOARD_CUTOUT_00
10
43.8
20
-28.8
0
VERTEX
8
BOARD_CUTOUT_00
10
37.2
20
-28.8
0
VERTEX
8
BOARD_CUTOUT_00
10
37.2
20
-41.3
0
VERTEX
8
BOARD_CUTOUT_00
10
35.15
20
-41.3
0
VERTEX
8
BOARD_CUTOUT_00
10
35.15
20
-52.75
0
VERTEX
8
BOARD_CUTOUT_00
10
46.55
20
-52.75
0
VERTEX
8
BOARD_CUTOUT_00
10
46.55
20
-42.65
0
VERTEX
8
BOARD_CUTOUT_00
10
54.15
20
-42.65
0
VERTEX
8
BOARD_CUTOUT_00
10
54.15
20
-32.9
0
VERTEX
8
BOARD_CUTOUT_00
10
43.8
20
-32.9
0
SEQEND
0
INSERT
2
SMOOTH_0$1
8
BOARD_CUTOUT_00
10
43.8
20
-28.8
0
INSERT
2
SMOOTH_0$1
8
BOARD_CUTOUT_00
10
37.2
20
-28.8
0
INSERT
2
SMOOTH_0$1
8
BOARD_CUTOUT_00
10
37.2
20
-41.3
0
INSERT
2
SMOOTH_0$1
8
BOARD_CUTOUT_00
10
35.15
20
-41.3
0
INSERT
2
SMOOTH_0$1
8
BOARD_CUTOUT_00
10
35.15
20
-52.75
0
INSERT
2
SMOOTH_0$1
8
BOARD_CUTOUT_00
10
46.55
20
-52.75
0
INSERT
2
SMOOTH_0$1
8
BOARD_CUTOUT_00
10
46.55
20
-42.65
0
INSERT
2
SMOOTH_0$1
8
BOARD_CUTOUT_00
10
54.15
20
-42.65
0
INSERT
2
SMOOTH_0$1
8
BOARD_CUTOUT_00
10
54.15
20
-32.9
0
INSERT
2
SMOOTH_0$1
8
BOARD_CUTOUT_00
10
43.8
20
-32.9
0
POLYLINE
8
BOARD_CUTOUT_00
66
1
40
0.1
41
0.1
70
1
0
VERTEX
8
BOARD_CUTOUT_00
10
54.7
20
-36.25
0
VERTEX
8
BOARD_CUTOUT_00
10
59.55
20
-36.25
0
VERTEX
8
BOARD_CUTOUT_00
10
59.55
20
-41.2
0
VERTEX
8
BOARD_CUTOUT_00
10
54.7
20
-41.2
0
SEQEND
0
INSERT
2
SMOOTH_0$1
8
BOARD_CUTOUT_00
10
54.7
20
-36.25
0
INSERT
2
SMOOTH_0$1
8
BOARD_CUTOUT_00
10
59.55
20
-36.25
0
INSERT
2
SMOOTH_0$1
8
BOARD_CUTOUT_00
10
59.55
20
-41.2
0
INSERT
2
SMOOTH_0$1
8
BOARD_CUTOUT_00
10
54.7
20
-41.2
0
POLYLINE
8
BOARD_CUTOUT_00
66
1
40
0.1
41
0.1
70
1
0
VERTEX
8
BOARD_CUTOUT_00
10
60.6
20
-43.6
0
VERTEX
8
BOARD_CUTOUT_00
10
65.7
20
-43.6
0
VERTEX
8
BOARD_CUTOUT_00
10
65.7
20
-47.75
0
VERTEX
8
BOARD_CUTOUT_00
10
60.6
20
-47.75
0
SEQEND
0
INSERT
2
SMOOTH_0$1
8
BOARD_CUTOUT_00
10
60.6
20
-43.6
0
INSERT
2
SMOOTH_0$1
8
BOARD_CUTOUT_00
10
65.7
20
-43.6
0
INSERT
2
SMOOTH_0$1
8
BOARD_CUTOUT_00
10
65.7
20
-47.75
0
INSERT
2
SMOOTH_0$1
8
BOARD_CUTOUT_00
10
60.6
20
-47.75
0
ENDBLK
999
*** POWERPCB  2DLINE ***
999
*** POWERPCB  COMPONENT ***
0
BLOCK
2
PART_BOT_67
8
0
10
0
20
0
3
PART_BOT_67
70
64
0
INSERT
2
SYM_BOT_25
8
0
10
0
20
0
0
INSERT
2
PKG_21
8
0
10
0
20
0
41
-1
0
TEXT
8
LABEL_INFO
10
0
20
0
40
0.889
1
0 0 0 2 0 1
73
2
11
0
21
0
41
0.75
7
W0$127
0
TEXT
8
LABEL_ATTRIBUTE
10
0
20
0
40
0.889
1
PartType
73
2
11
0
21
0
41
0.75
7
W0$127
0
TEXT
8
PART_TYPE_04
10
0
20
0
40
0.889
1
T-0.7
73
3
11
0
21
0
41
0.75
7
W0$127
0
TEXT
8
PART_NAME_BOT
10
0
20
0
40
1.778
1
P1
73
3
11
0
21
0
41
0.75
7
W0$254
0
TEXT
8
PART_INFO
10
0
20
-2.54
40
1.778
1
000000
71
2
73
3
11
0
21
-2.54
41
0.75
7
W0$254
0
TEXT
8
PART_PTS
10
0
20
-5.08
40
1.778
1
1 
71
2
73
3
11
0
21
-5.08
41
0.75
7
W0$254
0
ENDBLK
0
BLOCK
2
PART_BOT_68
8
0
10
0
20
0
3
PART_BOT_68
70
64
0
INSERT
2
SYM_BOT_25
8
0
10
0
20
0
0
INSERT
2
PKG_21
8
0
10
0
20
0
41
-1
0
TEXT
8
LABEL_INFO
10
0
20
0
40
0.889
1
0 0 0 2 0 1
73
2
11
0
21
0
41
0.75
7
W0$127
0
TEXT
8
LABEL_ATTRIBUTE
10
0
20
0
40
0.889
1
PartType
73
2
11
0
21
0
41
0.75
7
W0$127
0
TEXT
8
PART_TYPE_04
10
0
20
0
40
0.889
1
T-0.7
73
3
11
0
21
0
41
0.75
7
W0$127
0
TEXT
8
PART_NAME_BOT
10
0
20
0
40
1.778
1
P2
73
3
11
0
21
0
41
0.75
7
W0$254
0
TEXT
8
PART_INFO
10
0
20
-2.54
40
1.778
1
000000
71
2
73
3
11
0
21
-2.54
41
0.75
7
W0$254
0
TEXT
8
PART_PTS
10
0
20
-5.08
40
1.778
1
1 
71
2
73
3
11
0
21
-5.08
41
0.75
7
W0$254
0
ENDBLK
0
BLOCK
2
PART_BOT_69
8
0
10
0
20
0
3
PART_BOT_69
70
64
0
INSERT
2
SYM_BOT_25
8
0
10
0
20
0
0
INSERT
2
PKG_21
8
0
10
0
20
0
41
-1
0
TEXT
8
LABEL_INFO
10
0
20
0
40
0.889
1
0 0 0 2 0 1
73
2
11
0
21
0
41
0.75
7
W0$127
0
TEXT
8
LABEL_ATTRIBUTE
10
0
20
0
40
0.889
1
PartType
73
2
11
0
21
0
41
0.75
7
W0$127
0
TEXT
8
PART_TYPE_04
10
0
20
0
40
0.889
1
T-0.7
73
3
11
0
21
0
41
0.75
7
W0$127
0
TEXT
8
PART_NAME_BOT
10
0
20
0
40
1.778
1
P3
73
3
11
0
21
0
41
0.75
7
W0$254
0
TEXT
8
PART_INFO
10
0
20
-2.54
40
1.778
1
000000
71
2
73
3
11
0
21
-2.54
41
0.75
7
W0$254
0
TEXT
8
PART_PTS
10
0
20
-5.08
40
1.778
1
1 
71
2
73
3
11
0
21
-5.08
41
0.75
7
W0$254
0
ENDBLK
0
BLOCK
2
PART_BOT_70
8
0
10
0
20
0
3
PART_BOT_70
70
64
0
INSERT
2
SYM_BOT_25
8
0
10
0
20
0
0
INSERT
2
PKG_21
8
0
10
0
20
0
41
-1
0
TEXT
8
LABEL_INFO
10
0
20
0
40
0.889
1
0 0 0 2 0 1
73
2
11
0
21
0
41
0.75
7
W0$127
0
TEXT
8
LABEL_ATTRIBUTE
10
0
20
0
40
0.889
1
PartType
73
2
11
0
21
0
41
0.75
7
W0$127
0
TEXT
8
PART_TYPE_04
10
0
20
0
40
0.889
1
T-0.7
73
3
11
0
21
0
41
0.75
7
W0$127
0
TEXT
8
PART_NAME_BOT
10
0
20
0
40
1.778
1
P4
73
3
11
0
21
0
41
0.75
7
W0$254
0
TEXT
8
PART_INFO
10
0
20
-2.54
40
1.778
1
000000
71
2
73
3
11
0
21
-2.54
41
0.75
7
W0$254
0
TEXT
8
PART_PTS
10
0
20
-5.08
40
1.778
1
1 
71
2
73
3
11
0
21
-5.08
41
0.75
7
W0$254
0
ENDBLK
0
BLOCK
2
PART_BOT_71
8
0
10
0
20
0
3
PART_BOT_71
70
64
0
INSERT
2
SYM_BOT_25
8
0
10
0
20
0
0
INSERT
2
PKG_21
8
0
10
0
20
0
41
-1
0
TEXT
8
LABEL_INFO
10
0
20
0
40
0.889
1
0 0 0 2 0 1
73
2
11
0
21
0
41
0.75
7
W0$127
0
TEXT
8
LABEL_ATTRIBUTE
10
0
20
0
40
0.889
1
PartType
73
2
11
0
21
0
41
0.75
7
W0$127
0
TEXT
8
PART_TYPE_04
10
0
20
0
40
0.889
1
T-0.7
73
3
11
0
21
0
41
0.75
7
W0$127
0
TEXT
8
PART_NAME_BOT
10
0
20
0
40
1.778
1
P5
73
3
11
0
21
0
41
0.75
7
W0$254
0
TEXT
8
PART_INFO
10
0
20
-2.54
40
1.778
1
000000
71
2
73
3
11
0
21
-2.54
41
0.75
7
W0$254
0
TEXT
8
PART_PTS
10
0
20
-5.08
40
1.778
1
1 
71
2
73
3
11
0
21
-5.08
41
0.75
7
W0$254
0
ENDBLK
0
BLOCK
2
PART_BOT_72
8
0
10
0
20
0
3
PART_BOT_72
70
64
0
INSERT
2
SYM_BOT_25
8
0
10
0
20
0
0
INSERT
2
PKG_21
8
0
10
0
20
0
41
-1
0
TEXT
8
LABEL_INFO
10
0
20
0
40
0.889
1
0 0 0 2 0 1
73
2
11
0
21
0
41
0.75
7
W0$127
0
TEXT
8
LABEL_ATTRIBUTE
10
0
20
0
40
0.889
1
PartType
73
2
11
0
21
0
41
0.75
7
W0$127
0
TEXT
8
PART_TYPE_04
10
0
20
0
40
0.889
1
T-0.7
73
3
11
0
21
0
41
0.75
7
W0$127
0
TEXT
8
PART_NAME_BOT
10
0
20
0
40
1.778
1
P6
73
3
11
0
21
0
41
0.75
7
W0$254
0
TEXT
8
PART_INFO
10
0
20
-2.54
40
1.778
1
000000
71
2
73
3
11
0
21
-2.54
41
0.75
7
W0$254
0
TEXT
8
PART_PTS
10
0
20
-5.08
40
1.778
1
1 
71
2
73
3
11
0
21
-5.08
41
0.75
7
W0$254
0
ENDBLK
0
BLOCK
2
PART_BOT_177
8
0
10
0
20
0
3
PART_BOT_177
70
64
0
INSERT
2
SYM_BOT_25
8
0
10
0
20
0
0
INSERT
2
PKG_29
8
0
10
0
20
0
41
-1
0
TEXT
8
LABEL_INFO
10
0
20
0
40
0.889
1
0 0 0 2 0 1
73
2
11
0
21
0
41
0.75
7
W0$127
0
TEXT
8
LABEL_ATTRIBUTE
10
0
20
0
40
0.889
1
PartType
73
2
11
0
21
0
41
0.75
7
W0$127
0
TEXT
8
PART_TYPE_04
10
0
20
0
40
0.889
1
TEST
73
3
11
0
21
0
41
0.75
7
W0$127
0
TEXT
8
PART_NAME_BOT
10
0
20
0
40
1.778
1
TP5
73
3
11
0
21
0
41
0.75
7
W0$254
0
TEXT
8
PART_INFO
10
0
20
-2.54
40
1.778
1
000000
71
2
73
3
11
0
21
-2.54
41
0.75
7
W0$254
0
TEXT
8
PART_PTS
10
0
20
-5.08
40
1.778
1
1 
71
2
73
3
11
0
21
-5.08
41
0.75
7
W0$254
0
ENDBLK
0
BLOCK
2
PART_BOT_178
8
0
10
0
20
0
3
PART_BOT_178
70
64
0
INSERT
2
SYM_BOT_25
8
0
10
0
20
0
0
INSERT
2
PKG_29
8
0
10
0
20
0
41
-1
0
TEXT
8
LABEL_INFO
10
0
20
0
40
0.889
1
0 0 0 2 0 1
73
2
11
0
21
0
41
0.75
7
W0$127
0
TEXT
8
LABEL_ATTRIBUTE
10
0
20
0
40
0.889
1
PartType
73
2
11
0
21
0
41
0.75
7
W0$127
0
TEXT
8
PART_TYPE_04
10
0
20
0
40
0.889
1
TEST
73
3
11
0
21
0
41
0.75
7
W0$127
0
TEXT
8
PART_NAME_BOT
10
0
20
0
40
1.778
1
TP6
73
3
11
0
21
0
41
0.75
7
W0$254
0
TEXT
8
PART_INFO
10
0
20
-2.54
40
1.778
1
000000
71
2
73
3
11
0
21
-2.54
41
0.75
7
W0$254
0
TEXT
8
PART_PTS
10
0
20
-5.08
40
1.778
1
1 
71
2
73
3
11
0
21
-5.08
41
0.75
7
W0$254
0
ENDBLK
0
BLOCK
2
PART_BOT_179
8
0
10
0
20
0
3
PART_BOT_179
70
64
0
INSERT
2
SYM_BOT_25
8
0
10
0
20
0
0
INSERT
2
PKG_29
8
0
10
0
20
0
41
-1
0
TEXT
8
LABEL_INFO
10
0
20
0
40
0.889
1
0 0 0 2 0 1
73
2
11
0
21
0
41
0.75
7
W0$127
0
TEXT
8
LABEL_ATTRIBUTE
10
0
20
0
40
0.889
1
PartType
73
2
11
0
21
0
41
0.75
7
W0$127
0
TEXT
8
PART_TYPE_04
10
0
20
0
40
0.889
1
TEST
73
3
11
0
21
0
41
0.75
7
W0$127
0
TEXT
8
PART_NAME_BOT
10
0
20
0
40
1.778
1
TP7
73
3
11
0
21
0
41
0.75
7
W0$254
0
TEXT
8
PART_INFO
10
0
20
-2.54
40
1.778
1
000000
71
2
73
3
11
0
21
-2.54
41
0.75
7
W0$254
0
TEXT
8
PART_PTS
10
0
20
-5.08
40
1.778
1
1 
71
2
73
3
11
0
21
-5.08
41
0.75
7
W0$254
0
ENDBLK
0
BLOCK
2
SYM_BOT_25
8
0
10
0
20
0
3
SYM_BOT_25
70
64
0
TEXT
8
SYM_NAME
10
0
20
0
40
1.778
1
T-1
41
0.75
0
TEXT
8
SYM_PART_TYPE_01
10
0
20
0
40
0.889
1
 
73
2
11
0
21
0
41
0.75
7
W0$127R0
0
TEXT
8
SYM_PART_NAME_01
10
0
20
0
40
0.889
1
 
41
0.75
7
W0$127R0
0
INSERT
2
PART_BODY_BOT_64
8
0
10
0
20
0
0
INSERT
2
STK_BOT_46
8
0
10
0
20
0
0
TEXT
8
SYM_TERMINAL
10
0
20
-3.048
40
1.778
1
1
0
ENDBLK
0
BLOCK
2
PKG_21
8
0
10
0
20
0
3
PKG_21
70
64
0
TEXT
8
PKG_INFO
10
0
20
0
40
1.778
1
*SYM:= 25
0
TEXT
8
PKG_INFO
10
0
20
-3.048
40
1.778
1
*PKG:= 0 T-0.7 UND
0
ENDBLK
0
BLOCK
2
PKG_29
8
0
10
0
20
0
3
PKG_29
70
64
0
TEXT
8
PKG_INFO
10
0
20
0
40
1.778
1
*SYM:= 25
0
TEXT
8
PKG_INFO
10
0
20
-3.048
40
1.778
1
*PKG:= 0 TEST UND
0
ENDBLK
0
BLOCK
2
PART_BODY_BOT_64
8
0
10
0
20
0
3
PART_BODY_BOT_64
70
64
0
ENDBLK
0
BLOCK
2
STK_BOT_46
8
0
10
0
20
0
3
STK_BOT_46
70
64
0
INSERT
2
DRIL_HOLE_0
8
DRIL_PLTE_THRU_01
10
0
20
0
0
INSERT
2
DRIL_HOLE_0
8
DRIL_PLTE_THRU_02
10
0
20
0
0
INSERT
2
DRIL_HOLE_0
8
DRIL_PLTE_THRU_03
10
0
20
0
0
INSERT
2
DRIL_HOLE_0
8
DRIL_PLTE_THRU_04
10
0
20
0
0
INSERT
2
PAD_0
8
PADS_INNER
10
0
20
0
0
INSERT
2
PAD_1
8
PADS_BOT
10
0
20
0
0
INSERT
2
PAD_0
8
PADS_TOP
10
0
20
0
0
ENDBLK
999
*** POWERPCB  PCB PARAMETER ***
0
BLOCK
2
PCB_PARAMS
8
0
10
0
20
0
3
PCB_PARAMS
70
64
999
 *  1.Job name           2.Backupfile name       3.CursorType
999
 *  4.TearDropFlag       5.HighlighNetsFlag      6.HatchDisplayFlag
999
 *  7.PadsFlag           8.TracksFlag            9.ViasFlag
999
 * 10.CopperFlag        11.LinesFlag            12.TextFlag
999
 * 13.TopComponentFlag  14.BottomComponentFlag  16.ObjectSnapFlags
0
TEXT
8
PCB_PARAMS
10
0
20
-3.048
40
1.778
1
A:=3308SHAJIN_20200410.PCB <> 5 0 1 1 1 1 1 1 1 1 1 1 32 502 0
999
 *  1.RefDesHeight       2.RefDesWidth           3.DefaultWidth
999
 *  4.VGX                5.VGY                   6.OVR
999
 *  7.HatchGrid          8.ObjectSnapRadius
0
TEXT
8
PCB_PARAMS
10
0
20
-6.096
40
1.778
1
B:=2.54 0.254 0.1 0.05 0.05 0.0762 0.1 0.05
999
 *  1.ScaleFactor        2.NetAttributeFlags     3.BackupInterval
999
 *  4.WorkingLevel       5.HatchMode             6.HatchDirection
999
 *  7.ConnectionColor    8.BackgroundColor       9.ForegroundColor
999
 * 10.BoardOutlineColor
0
TEXT
8
PCB_PARAMS
10
0
20
-9.144
40
1.778
1
C:=2.9538857937 10002 5 1 0 0 0 0 15 15
999
 * MitreAngle0 - MitreAngle6
0
TEXT
8
PCB_PARAMS
10
0
20
-12.192
40
1.778
1
D:=324000000 324000000 324000000 324000000 324000000 324000000 324000000
999
 * Hatch & Keepout Parameters
0
TEXT
8
PCB_PARAMS
10
0
20
-15.24
40
1.778
1
E:=0.5 0 0 2.54 0 1
999
 * Fanout Parameters
0
TEXT
8
PCB_PARAMS
10
0
20
-18.288
40
1.778
1
F:=0.635 0.635 6.35 1 2 0 1 1 0 0 1 1 1 1
999
 * Pad Entry Parameters
0
TEXT
8
PCB_PARAMS
10
0
20
-21.336
40
1.778
1
P:= 1 1 1 1
999
 * DFF Parameters
0
TEXT
8
PCB_PARAMS
10
0
20
-24.384
40
1.778
1
Q:=89.9999 3967 114300 114300 114300 5 4 114300 114300 114300 114300 1 114300 1 114300 1 114300 0
0
ENDBLK
0
BLOCK
2
DRIL_SYMBOL_0
8
0
10
0
20
0
3
DRIL_SYMBOL_0
70
64
0
ENDBLK
999
*** POWERPCB  SMOOTH CIRCLE ***
0
BLOCK
2
SMOOTH_0$1
8
0
10
0
20
0
3
SMOOTH_0$1
70
64
0
POLYLINE
8
0
66
1
40
0.05
41
0.05
70
1
0
VERTEX
8
0
10
-0.025
20
0
42
1
0
VERTEX
8
0
10
0.025
20
0
42
1
0
SEQEND
0
ENDBLK
0
BLOCK
2
PAD_0
8
0
10
0
20
0
3
PAD_0
70
64
0
POLYLINE
8
0
70
1
66
1
0
VERTEX
8
0
10
0
20
0
42
1
0
VERTEX
8
0
10
0
20
0
42
1
0
SEQEND
0
ENDBLK
0
BLOCK
2
PAD_1
8
0
10
0
20
0
3
PAD_1
70
64
0
POLYLINE
8
0
70
1
66
1
40
0.5
41
0.5
0
VERTEX
8
0
10
0
20
-0.25
42
1
0
VERTEX
8
0
10
0
20
0.25
42
1
0
SEQEND
0
ENDBLK
999
*** POWERPCB  DRILL HOLE ***
0
BLOCK
2
DRIL_HOLE_0
8
0
10
0
20
0
3
DRIL_HOLE_0
70
64
0
POLYLINE
8
0
66
1
70
1
0
VERTEX
8
0
10
0
20
0
42
1
0
VERTEX
8
0
10
0
20
0
42
1
0
SEQEND
0
INSERT
2
DRIL_SYMBOL_0
8
0
10
0
20
0
0
ENDBLK
0
ENDSEC
0
SECTION
2
ENTITIES
999
*** POWERPCB  DBLAYER ***
0
INSERT
2
DBLAYERS
8
0
10
0
20
0
999
*** POWERPCB  BOARD ***
0
INSERT
2
BOARD_33
8
0
10
-120
20
75.4
999
*** POWERPCB  2DLINE ***
999
*** POWERPCB  COMPONENT ***
0
INSERT
2
PART_BOT_67
8
0
10
-100.35
20
48.05
41
-1
0
INSERT
2
PART_BOT_68
8
0
10
-100.35
20
45.7
41
-1
0
INSERT
2
PART_BOT_69
8
0
10
-99.35
20
46.65
41
-1
0
INSERT
2
PART_BOT_70
8
0
10
-99.35
20
44.95
41
-1
0
INSERT
2
PART_BOT_71
8
0
10
-98.35
20
48
41
-1
0
INSERT
2
PART_BOT_72
8
0
10
-98.35
20
45.7
41
-1
0
INSERT
2
PART_BOT_177
8
0
10
-93.8
20
14.4
41
-1
0
INSERT
2
PART_BOT_178
8
0
10
-93.8
20
17.05
41
-1
0
INSERT
2
PART_BOT_179
8
0
10
-93.8
20
15.6
41
-1
999
*** POWERPCB  PCB PARAMETER ***
0
INSERT
2
PCB_PARAMS
8
0
10
0
20
0
0
ENDSEC
0
EOF
